<?xml version="1.0" encoding="UTF-8" standalone="no"?>
<svg
   version="1.1"
   width="1618px"
   height="1000px"
   viewBox="-449 211 1618 1000"
   id="svg277"
   sodipodi:docname="employee-6038877.svg"
   inkscape:version="1.1.2 (1:1.1+202202050950+0a00cf5339)"
   xmlns:inkscape="http://www.inkscape.org/namespaces/inkscape"
   xmlns:sodipodi="http://sodipodi.sourceforge.net/DTD/sodipodi-0.dtd"
   xmlns="http://www.w3.org/2000/svg"
   xmlns:svg="http://www.w3.org/2000/svg">
  <defs
     id="defs281" />
  <sodipodi:namedview
     id="namedview279"
     pagecolor="#ffffff"
     bordercolor="#999999"
     borderopacity="1"
     inkscape:pageshadow="0"
     inkscape:pageopacity="0"
     inkscape:pagecheckerboard="0"
     showgrid="false"
     inkscape:zoom="0.32"
     inkscape:cx="634.375"
     inkscape:cy="492.1875"
     inkscape:window-width="1366"
     inkscape:window-height="704"
     inkscape:window-x="0"
     inkscape:window-y="27"
     inkscape:window-maximized="1"
     inkscape:current-layer="svg277" />
  <path
     d="m 366.34344,496.7988 -1.25268,-3.33664 -1.25266,-3.33666 q -29.7015,1.6463 -59.403,3.29262 -1.82768,14.2829 -3.6553,28.56583 6.583,13.01635 13.166,26.03271 l 52.39764,-51.21786"
     id="path172"
     style="fill:#ffc8a6;fill-opacity:0.996078;stroke-linejoin:miter" />
  <path
     d="m 936.35394,1135.2195 -5.00184,1.6509 q -7.90233,1.1086 -22.5691,2.1187 -3.1057,0.5667 -59.2203,2.8081 -49.6269,1.7242 -126.31136,3.0536 -99.18487,1.5071 -122.6781,1.5978 -43.17784,0.401 -89.40264,0.6265 -92.4494,0.4509 -197.08652,0.1998 -49.93122,-0.1754 -95.41916,-0.5011 -25.521,-0.069 -126.466495,-1.3151 -77.646072,-1.1019 -137.519075,-2.8047 -133.6756,-4.1195 -111.02425,-8.562 9.95609,-2.212 49.29117,-4.0809 19.66753,-0.9344 46.67982,-1.7831 9.3509,-0.4876 96.692086,-2.3337 145.154054,-2.7253 352.115424,-2.8413 125.97076,0.2152 146.5294,0.454 45.9459,0.2735 88.0288,0.7103 84.166,0.8734 152.88,2.3992 68.714,1.5257 108.04916,3.3946 19.66748,0.9345 31.99034,1.9547 24.38026,2.6256 20.44264,3.2537"
     id="path176"
     style="fill:#000000;fill-opacity:0.203922;stroke-linejoin:miter" />
  <path
     d="m 42.278835,676.4894 -2.237541,15.7211 q -7.752594,48.2539 -6.14545,86.6937 4.188423,39.9404 21.451042,49.34293 22.556744,24.53821 157.344534,-9.44403 l 30.83853,310.6384 80.57965,-14.5658 q 4.84233,-171.51095 1.0221,-235.4376 -5.01015,-81.69664 -21.7233,-101.58104 -14.4217,-19.8841 -37.34324,-24.35096 -24.05173,-6.6372 -101.51478,-7.13867 L 160.86514,660.70544 42.278835,676.4894"
     id="path180"
     style="fill:#000000;fill-opacity:0.996078;stroke-linejoin:miter" />
  <path
     d="m 279.94614,862.31744 16.8547,39.59516 -20.73199,31.89355 -30.16724,-7.16405 q 7.88074,-11.1326 11.95221,-12.7051 4.04798,-2.285 12.40643,1.13246 L 254.6117,881.6326 279.94614,862.31744"
     id="path184"
     style="fill:#ffc8a6;fill-opacity:1;stroke-linejoin:miter" />
  <path
     d="m -65.52438,525.9083 21.279305,9.4e-4 21.27931,9.2e-4 q -9.2e-5,156.4154 -1.68e-4,312.83114 -21.279234,6e-4 -42.558527,10e-4 -1.5e-4,-156.41694 8e-5,-312.8342"
     id="path188"
     style="fill:#1b0202;fill-opacity:1;stroke-linejoin:miter" />
  <path
     d="m -67.83099,811.10406 144.38775,3.7e-4 144.3878,8.7e-4 q 7e-5,34.0941 7e-5,68.18724 -144.38787,9.6e-4 -288.775616,0.002 -4e-6,-34.09494 -4e-6,-68.19004"
     id="path192"
     style="fill:#1b0202;fill-opacity:1;stroke-linejoin:miter" />
  <path
     d="m -53.137127,827.6353 12.24366,6e-4 12.243435,6.4e-4 q -6.3e-5,157.28006 -1.55e-4,314.55966 -12.243513,6e-4 -24.487016,0 7.6e-5,-157.2814 7.6e-5,-314.5627"
     id="path196"
     style="fill:#1b0202;fill-opacity:1;stroke-linejoin:miter" />
  <path
     d="m 153.87048,855.9827 12.24337,7.6e-4 12.2435,6.4e-4 q -1e-4,143.10635 -5.8e-4,286.2118 -12.24344,0 -24.48687,0 4.3e-4,-143.10667 5.8e-4,-286.2143"
     id="path200"
     style="fill:#1b0202;fill-opacity:1;stroke-linejoin:miter" />
  <path
     d="m 373.09164,903.2202 v 0 l -9.1e-4,-3.5e-4 9.1e-4,3.5e-4"
     id="path204"
     style="fill:#c9497b;fill-opacity:0.996078;stroke-linejoin:miter" />
  <path
     d="m 359.2734,627.0154 219.44205,9e-4 219.44175,5e-4 q 1.5e-4,13.5087 1.5e-4,27.01775 -219.4419,8.5e-4 -438.88395,0.002 0,-13.51044 0,-27.0208"
     id="path208"
     style="fill:#293855;fill-opacity:1;stroke-linejoin:miter" />
  <path
     d="m 388.48956,600.6912 110.45661,9.4e-4 110.45673,6.1e-4 q 0,13.35625 0,26.71285 -110.45673,6e-4 -220.91334,10e-4 0,-13.35786 0,-26.71566"
     id="path212"
     style="fill:#1b0202;fill-opacity:1;stroke-linejoin:miter" />
  <path
     d="m 619.34106,391.0932 10.02044,1.45313 10.02,1.45337 q -15.52884,107.11767 -31.05814,214.235 -10.02026,-1.45174 -20.04101,-2.9033 15.5293,-107.1196 31.05871,-214.2382"
     id="path216"
     style="fill:#1b0202;fill-opacity:1;stroke-linejoin:miter" />
  <path
     d="m 361.12064,642.5921 10.12432,0.001 10.12439,10e-4 q 7e-5,243.21365 0,486.427 -10.12439,0 -20.24865,0 0,-243.21585 -6e-5,-486.4321"
     id="path220"
     style="fill:#293855;fill-opacity:1;stroke-linejoin:miter" />
  <path
     d="m 479.71924,553.26196 c 2.87231,-10.87546 2.3114,-20.24806 -1.68262,-28.11736 -0.22656,-1.09785 -4.7608,-6.39314 -10.85229,-17.5426 -6.71003,-12.28126 -9.22211,-19.5906 -10.41095,-20.49763 -3.43073,-4.72363 -7.97108,-8.30437 -13.75598,-10.37775 -18.8147,-6.74347 -41.21167,-7.40344 -67.0427,-2.25299 -5.47992,1.09277 -12.6327,8.92639 -18.5197,10.65021 l -4.49977,24.80096 c 13.03149,29.4162 13.23132,37.1785 23.23541,48.1743 5.01703,5.5144 11.03976,10.8446 18.14371,16.03286 4.07977,2.97931 14.0174,9.00484 29.89441,18.03027 2.46069,1.39877 4.55908,3.01537 6.50544,4.52007 4.5609,3.5258 8.09423,8.0003 10.5409,13.5007 7.33,-0.92903 13.8787,-5.87904 19.6323,-14.8588 8.74146,-13.6428 15.00147,-27.6425 18.7939,-41.99 z"
     id="path224"
     style="fill:#000000;fill-opacity:1;stroke-linejoin:miter" />
  <path
     d="m 433.4267,595.8427 c -1.50495,-13.3821 -4.1402,-20.9662 -7.3935,-23.46996 -2.73175,-2.10234 -7.6421,-3.03374 -15.2984,-2.11904 l -9.0379,-11.67277 -17.754,-3.68878 -0.24182,-9.04529 c 10.17984,-2.66443 16.26782,-4.9281 18.41182,-6.60746 2.6436,-2.07076 3.21034,-4.75966 1.60506,-8.27553 -1.93604,-4.24024 -4.66426,-7.16352 -8.09021,-9.01887 -2.215,-1.1996 -6.8266,-1.6141 -13.98581,-0.97845 -1.29864,-0.23651 -2.45862,-1.07348 -3.83942,-2.06675 -2.23614,-1.60866 -28.72537,-10.9709 -20.27948,-28.5597 l -49.78101,53.49767 15.24964,0.21399 -2.92713,28.18294 c -3.46564,10.60484 -3.93237,16.82505 -2.2044,19.2939 1.73776,2.4829 7.47543,3.0282 18.08313,1.0978 4.71623,3.4157 7.92178,4.92395 9.63458,4.9092 2.00433,-0.0173 4.19312,-1.5298 6.57525,-4.9229 0.0953,4.62796 1.03388,7.222 2.56043,8.21695 1.57997,1.02979 5.2254,1.38015 11.23023,0.64095 -0.0466,8.0127 1.07959,11.69975 3.42694,11.5479 1.1526,-0.0745 2.96618,-0.6032 5.44403,-2.0762 l 17.09652,-11.2439 4.78089,-0.15275 c 3.8515,1.84595 7.85809,2.41181 12.05292,2.00165 4.01788,-0.3929 12.2265,-2.18567 24.60009,-5.68255 z"
     id="path228"
     style="fill:#ffc8a6;fill-opacity:1;stroke-linejoin:miter" />
  <path
     d="m 345.2045,542.0786 -40.66538,-7.1234 16.27348,35.31836 q 7.15566,-12.40656 11.88192,-17.69206 4.38675,-5.0749 12.47864,-10.4812"
     id="path232"
     style="fill:#fa5757;fill-opacity:0.0745098;stroke-linejoin:miter" />
  <path
     d="m 424.22473,609.7199 v 0 0 0"
     id="path236"
     style="fill:#000000;fill-opacity:0.996078;stroke-linejoin:miter" />
  <path
     d="m 159.46751,313.62753 v 1.9e-4 l -3e-5,1.8e-4 3e-5,-1.8e-4 v -1.9e-4 1.9e-4 l -3e-5,1.8e-4 q 3e-5,-1.8e-4 3e-5,-3.7e-4"
     id="path244"
     style="fill:#5396be;fill-opacity:0.996078;stroke-linejoin:miter" />
  <g
     id="g155"
     style="fill:#b3b3b3">
    <path
       d="m 168.42937,745.1457 -1.37076,2.42986 Q 153.60605,775.62085 112.18419,779.5231 79.92311,785.8454 27.20813,765.71344 33.11158,676.1553 63.49741,627.38745 112.62176,547.0086 189.7299,502.8297 241.79604,475.0475 319.29852,485.17004 l -1.55145,43.49622 2.72089,18.90759 -17.79642,6.4765 q -2.18036,23.68645 -16.57814,39.08675 -1.0346,1.73766 -12.20213,10.0998 -32.10656,20.285 -44.13596,30.22355 -11.10817,9.05939 -19.61363,20.56875 -6.97634,8.577 -17.4784,29.7899 -2.66217,3.4424 -24.23391,61.3266"
       id="path240"
       style="fill:#b3b3b3;fill-opacity:1;stroke-linejoin:miter" />
    <path
       d="m 267.9457,555.1746 -20.26009,-20.96586 52.45267,7.96856 q -9.56798,141.39765 -10.19998,197.5324 -1.37293,58.7339 4.1851,147.07314 l -47.21454,-2.74347 Q 208.04068,684.6993 187.48943,597.2787 l 80.45627,-42.1041"
       id="path248"
       style="fill:#b3b3b3;fill-opacity:1;stroke-linejoin:miter" />
  </g>
  <path
     d="m 295.17798,1105.804 4.99374,0.04 q 22.52771,0.1575 32.62798,1.1983 13.04945,1.2799 18.74537,3.8723 2.74469,1.1966 4.60065,2.7439 1.36231,0.6024 3.97241,5.2721 2.22637,4.8213 1.25684,15.4649 l -122.82917,1.6372 8.85825,-31.8045 47.77393,1.576"
     id="path252"
     style="fill:#000000;fill-opacity:0.996078;stroke-linejoin:miter" />
  <path
     d="m 773.97235,642.592 20.2486,0.003 -1.5e-4,486.427 h -20.2486 l 1.5e-4,-486.432"
     id="path256"
     style="fill:#293855;fill-opacity:1;stroke-linejoin:miter" />
  <g
     id="g115"
     style="fill:#999999">
    <path
       d="m 658.8668,550.01294 36.77444,0.001 36.77456,10e-4 q -1.5e-4,38.6236 -1.5e-4,77.24734 -36.77455,0.002 -73.54889,0.003 0,-38.62644 4e-5,-77.25266"
       id="path260"
       style="fill:#999999;fill-opacity:1;stroke-linejoin:miter" />
    <path
       d="m 691.9575,561.1475 v 0 l 56.5242,1.4e-4 c 1.75536,0 3.1781,1.42286 3.1781,3.1781 v 0 37.17243 c 0,1.75537 -1.4228,3.17816 -3.1782,3.17816 v 0 l -56.5242,7.3e-4 c -0.84296,0 -1.65143,-0.3349 -2.2474,-0.93091 -0.5959,-0.59605 -0.9307,-1.40441 -0.9307,-2.24719 v 0 -37.1734 c 0,-0.84296 0.3348,-1.65126 0.9308,-2.24731 0.596,-0.59595 1.40446,-0.93075 2.2474,-0.93075 v 0 m -10e-5,6.3562 3.17804,-3.17814 v 37.1734 l -3.17804,-3.17816 56.5242,-6e-4 -3.17813,3.17797 v -37.17243 l 3.17813,3.17811 z"
       id="path264"
       style="fill:#999999;fill-opacity:1;stroke-linejoin:miter" />
  </g>
  <path
     d="m 361.38135,414.54376 v 1.4e-4 l 3e-5,1.7e-4 -3e-5,-3.1e-4"
     id="path268"
     style="fill:#ffc8a6;fill-opacity:0.996078;stroke-linejoin:miter" />
  <path
     d="m 324.14444,626.6419 3e-5,1e-4 v 1.5e-4 l -3e-5,-2.5e-4"
     id="path272"
     style="fill:#ffc8a6;fill-opacity:0.996078;stroke-linejoin:miter" />
</svg>
